<?xml version="1.0" encoding="UTF-8"?>
<svg id="Layer_2" data-name="Layer 2" xmlns="http://www.w3.org/2000/svg" viewBox="0 0 691.72 660.81">
  <defs>
    <style>
      .cls-1 {
        fill: #2c3e50;
      }

      .cls-2 {
        fill: #2c3e50;
      }
    </style>
  </defs>
  <g id="Layer_1-2" data-name="Layer 1">
    <g>
      <path class="cls-1" d="M560.13,271.16l-32-5v-94c-18.96,12.25-26.35,34.34-37.98,52.52-30.81,48.18-79.68,76.59-137.79,60.74-14.86-4.05-27.14-11.02-40.97-16.03-66.67-24.14-77.71,62.64-115.74,94.78l-.04,130,111.85,45.91c4.36,14.19,10.49,27.63,16.66,41.07-14.68-5.94-29.16-12.71-43.83-18.66-33.04-13.39-66.83-26.04-99.61-39.41-54.24,21.14-107.77,44.23-161.54,66.57-7.58,2.12-16.3-1.88-18.33-9.69C-.63,413.42.27,246.56.35,79.89l3.25-5.75C61.43,48.38,120.1,24.18,178.74.2c61.92,22.55,122.5,49.76,184.05,73.71L541.86.4c6.69-1.26,10.81.39,14.71,5.82.57.8,3.56,6.07,3.56,6.44v258.5ZM164.13,40.16L31.13,96.66v379.5l10.07-6.43c29.39-31.92,20.81-80.39,66.67-98.33,12.67-4.96,28.26-5.82,40.19-10.81,4.65-1.95,11.52-8.97,16.07-11.93V40.16ZM347.13,251.16V101.66l-152-61.5v274c8.54-10.4,12.89-23.15,20.19-34.31,11-16.83,28.85-33.84,47.83-41.17,29.87-11.54,56.98-.16,83.98,12.48ZM528.13,136.16V40.16l-150,62.5v155.5h16.5c12.38,0,36-14.4,45.51-22.49,29.31-24.89,36.33-64.16,68.07-87.93,5.93-4.44,13.09-8.69,19.91-11.59ZM164.13,495.16v-108c-15.05,9.83-43.73,8.19-56.49,20.01-9.62,8.9-15.34,36.13-21.02,48.98-11.4,25.79-30.04,44.49-55.49,56.51v37.5l133-55Z"/>
      <g>
        <path class="cls-2" d="M691.72,477.1c0,101.46-82.25,183.7-183.7,183.7s-183.7-82.25-183.7-183.7,82.25-183.7,183.7-183.7,183.7,82.25,183.7,183.7ZM657.99,477.05c0-82.84-67.15-149.99-149.99-149.99s-149.99,67.15-149.99,149.99,67.15,149.99,149.99,149.99,149.99-67.15,149.99-149.99Z"/>
        <path class="cls-2" d="M582.84,377.37c7.2-1.64,13.59,3.61,12.08,11.06-18.38,35.32-29.89,76.2-47.62,111.41-2.92,5.8-5.5,10.2-10.85,14.15l-100.92,58.08c-9.65,4.42-16.07-3.04-12.45-12.45,17.96-35.65,30.35-75.52,47.87-111.12,3.93-7.99,6.32-11.14,13.88-16.12l98.01-54.99ZM520.78,463.51c-11.53-12.38-34.39.43-26.85,18.35,9.5,22.58,44.83.94,26.85-18.35Z"/>
      </g>
    </g>
  </g>
</svg>