<?xml version="1.0" encoding="UTF-8"?>
<svg id="Layer_2" data-name="Layer 2" xmlns="http://www.w3.org/2000/svg" viewBox="0 0 667.93 648.83">
  <g id="Layer_1-2" data-name="Layer 1">
    <g>
      <path fill="#2c3e50" d="M498.06,150.82c-20.87,7.81-35.76,16.34-48.81,34.69-22.97,32.28-35.1,59.61-76.65,73.35-51.82,17.13-77.92-29.45-117.54-19.54-44,11.01-52.86,69.61-80.48,98.52l-.35,133.83,121.51,60.57c.86.39,1.67.9,2.33,1.58,5.22,5.47,1.03,13.88-7.1,11.47-.32-.09-.63-.22-.94-.36l-123.3-60.87L10.87,552.15c-6.22,2.05-10.92-2.46-10.86-8.78V80.27c-.23-3.88,2.11-6.86,5.35-8.66L166.79,0l166.61,73.56L502.66.82c4.95-.51,8.71,3.57,8.45,8.44l-.03,251.55c-.42,5.21-5.11,9.49-10,5.95-.77-.56-3.03-3.39-3.03-3.97v-111.98ZM498.06,136.82V16.82l-158,68v165h14.5c10.94,0,33.54-12.8,42.41-19.59,29.42-22.5,38.16-60.91,69.41-79.59,9.4-5.62,21.23-10.48,31.67-13.83ZM327.06,85.82L174.06,17.82v299l5.17-7.33c15.91-29.5,29.57-66.24,63.15-79.85,33.54-13.6,54.75,4.14,84.68,15.18V85.82ZM160.06,18.82L14.06,83.32v374.5c6.67-2.68,14.62-6.79,20.33-11.17,22.92-17.57,22.71-47.28,40.7-68.3,21.27-24.86,46.17-18.17,70.89-33.11,5.13-3.1,9.08-7.35,14.08-10.42V18.82ZM14.06,535.82l146-64.5v-119.5c-15.17,13.6-36.03,14.25-53.96,20.54-33.86,11.89-32.65,51.07-53.07,74.93-10.02,11.71-24.81,19.8-38.97,25.53v63Z"/>
      <path fill="#2c3e50" d="M667.93,460.7c0,103.9-84.23,188.13-188.13,188.13s-188.13-84.23-188.13-188.13,84.23-188.13,188.13-188.13,188.13,84.23,188.13,188.13ZM654.09,460.75c0-96.26-78.03-174.29-174.29-174.29s-174.29,78.03-174.29,174.29,78.03,174.29,174.29,174.29,174.29-78.03,174.29-174.29Z"/>
      <path fill="#2c3e50" d="M560.81,361c6.52-1.28,10.87,4.83,8.78,10.84l-56.01,110.99c-3,7.14-8.72,9.48-14.85,13.15-31.46,18.88-71.93,42.7-104.66,58.34-8.7,4.16-15.2,2.83-12.23-8.24l60.82-119.18,118.15-65.91ZM550.06,381.83l-75.67,41.82-20.87,13.13-50.45,97.04,95.55-52.94,51.45-99.04Z"/>
      <path fill="#2c3e50" d="M472.8,444.06c12.23-2.27,19.76,5.06,18.28,17.29-1.8,14.89-25.07,15.71-28.59.54-1.69-7.31,2.64-16.41,10.3-17.83Z"/>
      <rect fill="#2c3e50" x="327.06" y="253.93" width="13" height="67.88"/>
      <ellipse fill="#2c3e50" cx="333.56" cy="321.82" rx="6.5" ry="5"/>
    </g>
  </g>
</svg>