<?xml version="1.0" encoding="UTF-8"?>
<!-- Generated by Pixelmator Pro 3.6.8 -->
<svg width="320" height="320" viewBox="0 0 320 320" xmlns="http://www.w3.org/2000/svg">
    <path id="path1" fill="#ffffff" stroke="none" d="M 259.020813 110.925919 C 257.116425 129.646713 250.179321 145.948563 240.070404 161.28862 C 234.747131 154.672531 229.34726 148.940491 226.567673 140.972397 C 224.1465 134.031738 218.933456 128.494949 211.929214 125.25032 C 205.688354 122.359314 198.959808 123.725601 195.137451 128.556259 C 192.180191 132.293625 191.906723 138.039185 194.516846 141.59581 C 197.45607 145.600861 201.437805 146.255264 207.661163 143.654312 C 208.334778 146.652512 208.744003 149.31665 204.467667 149.687653 C 188.045578 151.11261 172.569336 156.132065 157.352173 162.130692 C 156.432098 162.493408 155.479523 162.785568 154.522415 163.035309 C 154.236099 163.110031 153.883011 162.928848 153.296921 162.812668 C 173.868195 134.429993 186.911346 104.320175 175.811371 69.301636 C 184.741058 69.293243 194.048462 68.932312 203.309738 69.430038 C 207.687241 69.665359 208.540176 68.263 208.185806 64.472137 C 207.892014 61.329407 207.758148 58.122925 208.054428 54.992096 C 208.233093 53.103668 209.369095 51.305817 210.074951 49.467316 C 210.787491 49.573303 211.500046 49.679291 212.212616 49.785309 C 212.323441 54.222198 212.70047 58.672241 212.483002 63.093048 C 212.153107 69.800934 211.981003 69.721436 218.583252 70.031174 C 230.394669 70.585281 242.201645 71.234207 254.481934 71.867798 C 258.709625 84.371994 260.146118 97.255753 259.020813 110.925919 Z"/>
    <path id="path2" fill="#ffffff" stroke="none" d="M 202.016098 172.033356 C 186.743301 172.193314 171.470322 172.340408 156.197693 172.517105 C 142.741257 172.672836 129.284927 172.965546 115.829285 172.928436 C 113.710808 172.922592 111.596283 171.489487 109.479927 170.716293 C 109.658005 169.965179 109.836082 169.214035 110.014183 168.462921 C 113.569115 168.459579 117.124054 168.452728 120.678986 168.453415 C 144.138031 168.458008 167.597092 168.480072 191.056137 168.463852 C 204.508804 168.45459 209.319366 164.458145 212.153244 151.072662 C 212.325394 150.259659 212.540298 149.45575 213.196365 148.447021 C 218.698944 149.465485 216.658844 144.761871 219.322845 142.52951 C 216.421295 142.263596 214.704102 142.106232 212.986908 141.948853 C 210.878799 134.071625 209.172287 132.64183 202.979279 133.967667 C 203.332962 134.703781 204.001495 135.424469 203.889328 135.990402 C 203.580032 137.550598 202.944168 139.046097 202.437485 140.567184 C 200.929993 139.845459 198.823944 139.521851 198.028702 138.32634 C 195.757874 134.912537 198.674011 129.261902 203.156036 129.105591 C 206.3983 128.992462 210.34903 129.78215 212.862183 131.66571 C 221.849243 138.401367 225.302322 148.018936 226.102203 159.06192 C 226.556091 165.328674 225.408722 170.861252 221.803452 175.776062 C 216.79985 182.597107 210.09494 186.892395 200.82457 188.118042 C 199.041641 188.377747 198.001099 188.556 196.960556 188.734222 C 176.961578 188.666367 156.962616 188.598541 136.245392 188.575287 C 135.345032 188.682755 135.162933 188.745605 134.98082 188.808472 C 134.245758 188.716415 133.510696 188.624359 132.150452 188.564667 C 131.337982 188.652466 131.150696 188.707886 130.96344 188.76326 C 128.660538 187.457352 126.357643 186.151443 123.043449 184.272049 C 125.020973 184.127991 125.661224 184.08136 127.065994 184.06456 C 129.240616 184.010696 130.650696 183.927002 132.520096 183.896133 C 137.314636 183.912979 141.649841 183.877014 146.431808 183.928024 C 149.606323 183.95105 152.334045 183.88707 155.521057 183.875931 C 160.315796 183.894119 164.65126 183.859497 169.450607 183.911224 C 174.064682 184.004684 178.218811 184.131119 182.364136 183.992523 C 189.640976 183.749161 197.09491 184.248947 204.150162 182.827209 C 221.647125 179.301224 226.888382 160.182526 218.920441 146.906204 C 218.925339 152.105865 218.929764 156.802155 218.796234 161.110519 C 218.430267 160.330002 218.202209 159.937393 217.974182 159.544815 C 217.746552 159.839005 217.518951 160.133194 217.291351 160.427383 C 217.859558 160.854645 218.427811 161.281876 219.038666 162.143005 C 218.355759 164.699463 217.630219 166.822037 216.467789 168.945618 C 214.864746 168.952591 213.698608 168.958511 212.709259 168.608307 C 215.696121 162.84491 215.803787 161.968826 214.090714 157.359573 C 212.096466 164.091034 209.066696 169.761642 202.016098 172.033356 Z"/>
    <path id="path3" fill="#ffffff" stroke="none" d="M 96.295341 247.012207 C 96.394722 241.340546 96.494125 235.668884 96.5289 229.278137 C 96.40226 228.376648 96.340195 228.194214 96.278152 228.011795 C 96.384117 222.866455 96.689407 217.71286 96.47596 212.580811 C 96.41098 211.018494 95.297058 208.979355 94.016403 208.070282 C 83.63224 200.69928 81.634735 190.752182 81.831177 178.424255 C 82.523209 134.993362 82.035622 91.543594 81.995544 48.101044 C 81.993896 46.312958 81.992195 44.524872 81.990234 42.440277 C 83.750084 42.317474 85.029045 42.151886 86.308197 42.150085 C 120.263313 42.103455 154.218491 42.094269 188.173401 41.990784 C 190.242554 41.984497 192.360992 41.425385 194.366409 40.823395 C 198.1548 39.686188 199.504166 40.861511 198.584244 45.632538 C 195.946655 45.836487 193.867584 45.651001 191.788528 45.465546 C 189.427048 45.464905 187.065521 45.464294 184.048981 45.529388 C 183.236572 45.656616 183.079285 45.718109 182.921967 45.779602 C 169.648636 45.66861 156.375366 45.480011 143.101913 45.465729 C 125.330864 45.446625 107.559647 45.562531 89.049553 45.609375 C 87.855042 45.618134 87.399467 45.63797 86.768524 45.518921 C 86.210312 45.961884 85.827469 46.543793 85.3899 47.488525 C 85.436691 48.567902 85.538223 49.284424 85.639763 50.000977 C 85.580551 73.397675 85.521339 96.794418 85.508629 120.879883 C 85.619507 121.726151 85.683861 121.883621 85.748207 122.041092 C 85.656059 132.732346 85.563927 143.423599 85.457184 154.977631 C 85.538109 157.267014 85.633614 158.693619 85.729118 160.12027 C 85.662498 171.139526 85.595901 182.158752 85.638412 193.94455 C 86.180504 195.152374 86.613472 195.59375 87.046448 196.035095 C 87.557823 196.617279 88.069206 197.199463 88.977318 198.204651 C 90.937401 200.084167 92.500771 201.540634 94.064125 202.997147 C 94.236191 203.280518 94.408272 203.563904 94.917953 204.257904 C 96.509254 205.818756 97.762962 206.968979 99.01667 208.119202 C 99.362549 209.853149 100.00235 211.586014 100.009125 213.321259 C 100.081177 231.810089 100.00444 250.299591 100.108063 268.788116 C 100.122444 271.35202 101.072929 273.900208 101.235863 276.478058 C 101.320305 277.814148 101.000267 279.545227 100.162186 280.445496 C 99.562874 281.089264 97.323509 281.166321 96.669762 280.566162 C 95.770638 279.740814 95.253662 278.017365 95.31353 276.712677 C 95.569572 271.133301 96.09774 265.566437 96.481346 259.27652 C 96.374718 258.380493 96.313362 258.202942 96.252007 258.025391 C 96.364616 255.006714 96.477234 251.988037 96.535072 248.264282 C 96.418655 247.376877 96.356987 247.194565 96.295341 247.012207 Z"/>
    <path id="path4" fill="#ffffff" stroke="none" d="M 196.454529 60.85733 C 192.501022 60.32132 188.962234 59.283112 185.419952 59.27121 C 158.425629 59.180328 131.430634 59.289886 104.435844 59.336792 C 102.824806 59.339569 101.213753 59.339996 99.106606 59.34198 C 99.115364 68.65094 99.115822 77.43512 99.133316 86.219223 C 99.190742 115.047302 99.171371 143.87616 99.455925 172.702026 C 99.481743 175.317749 101.201538 178.081512 102.648499 180.464523 C 103.737976 182.258759 105.660187 183.543411 107.194878 185.071823 C 118.98069 196.809448 118.980721 196.843933 135.719574 196.187439 C 137.271103 196.126587 138.772461 195.017822 140.333847 194.905243 C 141.648468 194.810394 143.355896 195.084198 144.250519 195.897583 C 144.930222 196.515533 145.152405 198.688934 144.597763 199.35997 C 143.812515 200.310028 142.101837 201.011734 140.826401 200.953308 C 134.26651 200.652618 127.698822 200.252151 121.178871 199.497421 C 118.902344 199.233902 116.27906 198.383835 114.634163 196.895416 C 108.957161 191.758331 103.567039 186.293732 98.248909 180.779053 C 97.117004 179.605286 96.12545 177.697098 96.120003 176.123642 C 95.984001 136.797409 95.988228 97.470688 95.979378 58.144043 C 95.979263 57.665771 96.13192 57.187439 96.270958 56.370026 C 97.512474 56.27417 98.77787 56.093384 100.043625 56.090912 C 129.538605 56.033203 159.033691 56.012756 188.528519 55.911469 C 190.444672 55.904907 192.368881 55.003876 194.270889 55.067902 C 196.048904 55.127716 197.802322 55.918304 199.566559 56.387268 C 198.666901 57.868317 197.767258 59.349365 196.454529 60.85733 Z"/>
    <path id="path5" fill="#ffffff" stroke="none" d="M 79.879898 29.421814 C 81.396667 28.315094 82.856781 27.004761 84.323273 26.99765 C 87.2202 26.983521 90.120033 28.041077 93.01976 28.046356 C 128.646179 28.111237 164.272919 28.104553 199.899185 27.99115 C 203.617599 27.979309 206.405319 28.854279 209.086288 31.676941 C 215.960648 38.914612 223.173615 45.834717 230.359528 52.769501 C 232.102173 54.451263 234.447433 55.512878 236.167999 57.211731 C 237.328598 58.357666 238.202454 60.054443 238.531036 61.644012 C 238.648941 62.214355 236.564896 64.004272 235.888504 63.81308 C 234.539276 63.431732 233.312317 62.201477 232.323456 61.069733 C 231.161469 59.739838 230.513626 57.936707 229.283691 56.694214 C 222.023865 49.360291 214.787247 41.992584 207.238037 34.963623 C 205.418076 33.269073 202.45163 31.931305 200.003754 31.916962 C 163.380203 31.701843 126.755226 31.724274 90.130615 31.749268 C 88.356323 31.750519 86.513664 32.080109 84.8237 32.628937 C 81.98143 33.551971 80.316032 32.83493 79.879898 29.421814 Z"/>
    <path id="path6" fill="#ffffff" stroke="none" d="M 145.999222 98.628571 C 145.98819 103.005859 144.239273 102.898224 140.575684 102.363007 C 133.463943 101.32402 126.086723 100.875931 118.982445 101.659836 C 116.404251 101.944305 113.210388 105.382614 113.30291 109.950043 C 113.59285 124.263245 113.370399 138.586227 113.462509 152.904678 C 113.478172 155.340454 114.372643 157.788498 114.247025 160.198837 C 114.192856 161.238297 112.575027 162.196198 111.667503 163.191101 C 110.935265 162.202316 109.624893 161.237976 109.581802 160.220016 C 109.463997 157.436615 110.046776 154.631165 110.056656 151.83342 C 110.107224 137.513733 110.062302 123.193695 110.055878 108.87381 C 110.053528 103.604584 115.744644 98.05394 120.996567 97.824448 C 128.059174 97.515869 135.105728 96.829788 142.168869 96.552887 C 143.39267 96.504913 144.664474 97.680908 145.999222 98.628571 Z"/>
    <path id="path7" fill="#fcfcfc" stroke="none" d="M 124.953972 180.390533 C 121.795082 179.585358 118.6362 178.780228 115.47731 177.975067 C 115.556664 177.401993 115.636009 176.828918 115.715363 176.255814 C 116.888588 176.131821 118.061707 175.900787 119.235062 175.899536 C 144.117569 175.872833 169.000122 175.884674 193.882599 175.846298 C 196.361755 175.842468 198.840469 175.56369 201.99115 175.200363 C 203.441406 174.741669 204.219894 174.495087 205.005295 174.627884 C 205.521835 176.08194 206.031418 177.156616 206.19931 178.466309 C 202.286072 179.175369 198.724411 179.945908 195.141113 180.064636 C 186.416931 180.353729 177.682724 180.340393 168.497787 180.37532 C 163.729507 180.355331 159.416 180.408798 154.658249 180.33786 C 151.45697 180.27803 148.699982 180.342636 145.488556 180.336319 C 140.717316 180.312195 136.400513 180.358948 131.649399 180.290695 C 129.128082 180.247284 127.041016 180.318924 124.953972 180.390533 Z"/>
    <path id="path8" fill="#ffffff" stroke="none" d="M 109.06868 277.683716 C 109.649071 273.425934 110.664948 269.606995 110.717018 265.774902 C 110.913887 251.286499 110.858253 236.793335 110.739441 222.303238 C 110.719727 219.897461 109.71843 217.512207 109.543556 215.09053 C 109.437263 213.6185 109.610626 211.707825 110.482628 210.72699 C 111.089043 210.044891 113.702515 210.058075 114.330292 210.749481 C 115.185883 211.691833 115.284256 213.591797 115.200729 215.052216 C 115.081268 217.141144 114.182404 219.202316 114.172562 221.277985 C 114.094315 237.768021 114.123405 254.25882 114.199989 270.748993 C 114.207336 272.328583 115.050705 273.917419 114.986931 275.480804 C 114.914871 277.247589 114.822906 279.826355 113.732178 280.565552 C 111.6138 282.001282 109.614822 280.896027 109.06868 277.683716 Z"/>
    <path id="path9" fill="#ffffff" stroke="none" d="M 128.061478 253.029968 C 128.056732 259.018188 127.961823 264.50882 128.100647 269.99353 C 128.148743 271.893646 129.027664 273.774292 129.063675 275.672607 C 129.094482 277.298035 128.767014 279.112366 127.972946 280.480286 C 127.661713 281.01651 124.984543 281.050385 124.55201 280.459198 C 123.717758 279.318878 123.352478 277.54895 123.443336 276.080353 C 123.612816 273.340576 124.611458 270.631897 124.62867 267.906281 C 124.728401 252.108856 124.695183 236.309769 124.555313 220.512634 C 124.537064 218.450165 123.383125 216.411072 123.260376 214.331375 C 123.185005 213.054352 123.728645 211.325928 124.635506 210.540253 C 125.331619 209.937149 127.47477 210.008316 128.169968 210.650482 C 129.052551 211.46579 129.554703 213.194809 129.456757 214.471207 C 129.209335 217.695221 128.162933 220.879227 128.10025 224.092209 C 127.915413 233.568115 128.0522 243.050262 128.061478 253.029968 Z"/>
    <path id="path10" fill="#ffffff" stroke="none" d="M 129.91954 70.224457 C 138.909943 70.219513 147.402649 70.298767 155.891754 70.15892 C 158.501587 70.115936 161.102951 69.200943 163.70549 69.214157 C 165.137131 69.22142 166.703568 70.138763 167.920059 71.037277 C 168.382782 71.379074 168.38092 73.426254 167.994904 73.645157 C 166.676788 74.392578 165.085327 75.095032 163.61293 75.065994 C 147.712891 74.752182 131.81636 74.261887 115.916359 73.944641 C 114.723907 73.920853 113.514832 75.231934 112.309059 75.239716 C 110.995941 75.248245 109.422379 74.753906 108.453941 73.912811 C 107.838005 73.377838 107.613136 71.371643 108.106888 70.807144 C 108.954483 69.838089 110.524277 68.91333 111.750778 68.962891 C 117.648041 69.201126 123.531868 69.771729 129.91954 70.224457 Z"/>
    <path id="path11" fill="#ffffff" stroke="none" d="M 163.819397 89.176147 C 161.44606 88.551743 159.451431 87.492798 157.444107 87.468063 C 145.825424 87.325073 134.201477 87.30336 122.584564 87.521439 C 119.243034 87.584152 115.934456 88.736313 112.579033 89.06131 C 111.288528 89.18631 109.552399 88.760208 108.688011 87.90744 C 108.038536 87.266632 107.986938 85.246658 108.531174 84.385269 C 109.081932 83.513565 110.703888 82.857803 111.837425 82.885727 C 124.688637 83.202377 137.533936 83.812119 150.385956 84.015091 C 154.751877 84.08403 159.126923 83.024872 163.509216 82.907669 C 164.996323 82.867889 167.45697 83.802704 167.841614 84.876465 C 168.834946 87.649185 167.124756 89.188614 163.819397 89.176147 Z"/>
    <path id="path12" fill="#ffffff" stroke="none" d="M 82.553253 232.707611 C 82.506058 232.11261 82.45752 231.950287 82.445526 231.785309 C 82.282898 229.548126 82.038086 227.307083 82.127327 225.079559 C 82.134689 224.895523 84.710419 224.273987 85.585831 224.763123 C 88.605095 226.450012 87.305992 228.759308 86.251778 231.171967 C 85.693909 232.44873 85.988312 234.120789 85.987907 235.61441 C 85.985382 244.77533 85.866699 253.939575 86.083191 263.095673 C 86.191216 267.663971 87.054352 272.210571 87.299858 276.781799 C 87.369499 278.07843 86.811531 279.813324 85.899086 280.626801 C 85.202454 281.247925 83.189316 281.182648 82.318504 280.596161 C 81.4468 280.009033 80.803307 278.374908 80.85537 277.236084 C 81.283852 267.861389 81.992538 258.499512 82.418564 249.124786 C 82.660324 243.804916 82.531082 238.468185 82.553253 232.707611 Z"/>
    <path id="path13" fill="#ffffff" stroke="none" d="M 138.936905 227.063049 C 138.368225 222.400787 137.68692 218.240936 137.303375 214.053787 C 137.198471 212.90863 137.648239 211.10376 138.44902 210.634094 C 139.521057 210.00531 141.39534 209.935638 142.521515 210.472549 C 143.36972 210.876846 144.069412 212.641602 144.001434 213.749634 C 143.540451 221.263336 142.526352 228.754639 142.325211 236.270111 C 142.031509 247.245087 142.192612 258.235443 142.3479 269.216553 C 142.378708 271.395233 143.463547 273.542175 143.674088 275.740967 C 143.816864 277.231842 143.730042 279.144806 142.896133 280.192963 C 142.308533 280.931519 139.666702 281.135223 139.063278 280.5047 C 138.151779 279.552277 137.888504 277.6521 137.944717 276.177368 C 138.03006 273.938507 138.940475 271.720886 138.953064 269.49115 C 139.031967 255.51297 138.959106 241.533936 138.936905 227.063049 Z"/>
    <path id="path14" fill="#ffffff" stroke="none" d="M 127.947701 155.041107 C 128.301025 155.957062 129.009338 156.90715 128.925461 157.781128 C 128.795868 159.131378 128.348038 160.587494 127.579124 161.676743 C 127.244621 162.150604 125.307503 162.230331 124.921509 161.781357 C 124.044281 160.760971 123.162209 159.294266 123.182159 158.023071 C 123.370735 145.999542 123.776497 133.979599 124.028656 121.956711 C 124.054726 120.713303 123.111443 119.400681 123.288559 118.220856 C 123.554878 116.446655 124.062248 113.573532 125.089165 113.269608 C 127.759537 112.479416 129.430695 114.13269 128.676208 117.813293 C 128.184464 130.638321 128.066071 142.839737 127.947701 155.041107 Z"/>
    <path id="path15" fill="#575857" stroke="none" d="M 128.160522 154.690445 C 128.066071 142.839737 128.184464 130.638321 128.619141 118.210266 C 128.748077 130.102325 128.560699 142.221039 128.160522 154.690445 Z"/>
    <path id="path17" fill="#ffffff" stroke="none" d="M 212.919357 142.374664 C 214.704102 142.106232 216.421295 142.263596 219.322845 142.52951 C 216.658844 144.761871 218.698944 149.465485 213.341156 148.105881 C 212.967178 146.243713 212.90947 144.52211 212.919357 142.374664 Z"/>
    <path id="path37" fill="#ffffff" stroke="none" d="M 216.467789 168.945618 C 213.670273 171.997086 210.435898 175.049576 206.871277 178.166656 C 206.031418 177.156616 205.521835 176.08194 205.005295 174.627884 C 207.349197 172.616409 209.700027 170.984283 212.291656 169.158325 C 213.698608 168.958511 214.864746 168.952591 216.467789 168.945618 Z"/>
</svg>
