<?xml version="1.0" encoding="UTF-8"?>
<svg id="Layer_2" data-name="Layer 2" xmlns="http://www.w3.org/2000/svg" viewBox="0 0 906.2 790.22">
  <defs>
    <style>
      .cls-1 {
        fill: #2c3e50;
        stroke: #2c3e50;
        stroke-miterlimit: 10;
        stroke-width: 4px;
      }
    </style>
  </defs>
  <g id="Layer_1-2" data-name="Layer 1">
    <path class="cls-1" d="M882.52,300.55c-23.22,45.24-71.53,139.38-244.26,139.38h-232.88v-82.18c50.39,4.56,92.96,21.49,112.13,44.92,1.8,2.2,4.49,3.45,7.28,3.45.52,0,1.05-.04,1.58-.13,3.33-.57,6.11-2.88,7.26-6.06,61.03-168.18,5.78-271.96,3.4-276.29-1.65-3.01-4.81-4.88-8.24-4.88h-123.4v-45.97h-18.81v45.97h-147.27c-3.44,0-6.61,1.89-8.25,4.92-1.65,3.02-1.5,6.72.36,9.61.64.99,63.35,100.98,5.56,260.23-1.49,4.09.03,8.67,3.66,11.06,3.63,2.4,8.44,1.98,11.61-.99l18.05-16.94c21.31-19.99,66.16-31.37,116.27-30v83.3H21.67V20.81h748.6v346.26c0,5.19,4.21,9.41,9.41,9.41s9.41-4.21,9.41-9.41V11.41c0-5.19-4.21-9.41-9.41-9.41H12.27C7.07,2,2.86,6.21,2.86,11.41v437.94c0,4.9,3.76,8.88,8.54,9.32v.09h626.85c140.17,0,204.83-60.69,237.86-109.44-8.33,40.58-27.25,97.12-70.16,136.03-57.63,52.25-143.84,64-220.57,68.6-64.6,3.87-130.56,3.24-194.33,2.63-23.74-.23-48.3-.46-72.46-.46-29.49,0-304.4-.68-307.17-.69l-9.43-.02v232.82h787.07v-246.73c-6.14,3.53-12.41,6.81-18.81,9.83v218.08H20.81s0-195.14,0-195.14c48.85.12,271.4.67,297.79.67,24.07,0,48.58.23,72.27.46,64.1.62,130.38,1.25,195.63-2.67,79.99-4.8,170.13-17.28,232.08-73.44,71.94-65.23,81.47-174.53,82.65-195.78l2.45-44.13-21.17,41.19ZM378.24,337.68c-46.54,0-87.64,10.39-112.78,28.63,32.64-116.47,4.55-197.25-10.43-228.75h267.81c9.32,21.18,41.53,109.81-1.99,241.79-26.27-22.57-70.18-37.59-121.41-40.97-7.16-.47-14.24-.71-21.19-.71Z"/>
  </g>
</svg>