<?xml version="1.0" encoding="UTF-8"?>
<!-- Generated by Pixelmator Pro 3.6.13 -->
<svg width="1000" height="1000" viewBox="0 0 1000 1000" xmlns="http://www.w3.org/2000/svg">
    <g id="Layer2">
        <path id="Path" fill="none" stroke="#ECF0F1" stroke-width="30" d="M 72.5 72.5 L 936.5 72.5 L 936.5 936.5 L 72.5 936.5 Z"/>
    </g>
    <g id="CLayer2">
        <path id="path1" fill="none" stroke="#ECF0F1" stroke-width="30" stroke-linecap="round" d="M 84.5 576.5 L 799.611023 576.5"/>
        <path id="path2" fill="none" stroke="#ECF0F1" stroke-width="30" stroke-linecap="round" d="M 84.5 720.5 L 759.965027 720.5"/>
        <path id="path3" fill="none" stroke="#ECF0F1" stroke-width="30" d="M 504.5 576.5 L 504.5 471.924988"/>
        <path id="path4" fill="none" stroke="#ECF0F1" stroke-width="30" d="M 504.5 219.731995 L 504.5 144.5"/>
    </g>
    <g id="Layer7">
        <path id="Shape" fill="none" stroke="#ECF0F1" stroke-width="30" stroke-linecap="round" stroke-linejoin="round" d="M 296.080994 -55.665039 C 357.989014 -266.643066 550.794983 -410.803955 770.5 -411.5 C 1043.328003 -411.5 1264.5 -190.328979 1264.5 82.5 C 1265.02002 256.231995 1172.904053 413.254028 1026.675049 504.834991"/>
        <path id="path5" fill="none" stroke="#ECF0F1" stroke-width="30" stroke-linecap="round" stroke-linejoin="round" d="M 937.512024 547.554993 C 884.031006 566.890015 827.315002 576.320007 770.5 576.5"/>
    </g>
    <g id="---Layer8">
        <path id="path6" fill="none" stroke="#ECF0F1" stroke-width="30" stroke-linecap="round" stroke-linejoin="round" d="M 930.778015 675.124023 C 864.825989 704.950989 792.776001 719.804016 720.5 720.5"/>
    </g>
    <g id="Layer3">
        <path id="path7" fill="none" stroke="#ECF0F1" stroke-width="30" stroke-linecap="round" d="M 324.5 216.5 L 684.5 216.5"/>
    </g>
    <g id="Layer5">
        <path id="path8" fill="none" stroke="#ECF0F1" stroke-width="30" stroke-linecap="round" stroke-linejoin="round" d="M 685.447021 216.5 C 692.892029 259.575989 696.268982 306.087036 696.499023 352.64801 C 696.559998 405.865967 691.744019 456.290039 682.554016 504.5"/>
        <path id="path9" fill="none" stroke="#ECF0F1" stroke-width="30" stroke-linecap="round" stroke-linejoin="round" d="M 327.393005 216.5 C 334.838013 259.575989 338.214996 306.087036 338.446014 352.64801 C 338.506012 405.865967 333.690002 456.290039 324.5 504.5"/>
    </g>
    <g id="Layer6">
        <path id="path10" fill="none" stroke="#ECF0F1" stroke-width="30" stroke-linecap="round" stroke-linejoin="round" d="M 324.5 504.5 C 381.256012 480.532959 442.312012 468.703003 503.527008 468.5 C 564.843018 468.217041 625.664001 481.047974 682.554016 504.5"/>
    </g>
</svg>
