<?xml version="1.0" encoding="UTF-8"?>
<!-- Generated by Pixelmator Pro 3.6.13 -->
<svg width="1285" height="1285" viewBox="0 0 1285 1285" xmlns="http://www.w3.org/2000/svg">
    <g id="Layer-1">
        <g id="XMLID-19-">
            <path id="XMLID-20-" fill="#ECF0F1" stroke="none" d="M 1155.992432 532.450684 C 1129.093872 584.866943 1073.122192 693.9375 872.996338 693.9375 L 603.179138 693.9375 L 603.179138 598.721924 C 661.56311 604.00293 710.880249 623.615234 733.088135 650.765137 C 735.178467 653.31958 738.285278 654.763672 741.522461 654.763672 C 742.128418 654.763672 742.742065 654.711914 743.351929 654.608398 C 747.214355 653.950439 750.428467 651.267578 751.763184 647.583496 C 822.474854 452.729736 758.456299 332.49585 755.698486 327.473145 C 753.784546 323.988525 750.121704 321.823242 746.147949 321.823242 L 603.179138 321.823242 L 603.179138 268.567139 L 581.385681 268.567139 L 581.385681 321.823242 L 410.754944 321.823242 C 406.766052 321.823242 403.099304 324.015137 401.192993 327.519043 C 399.282959 331.022949 399.45166 335.299316 401.614929 338.651611 C 402.355164 339.800537 475.015198 455.640869 408.062439 640.150391 C 406.340271 644.888916 408.096924 650.189941 412.30835 652.9646 C 416.519775 655.745605 422.081299 655.262207 425.759521 651.814209 L 446.674561 632.19165 C 471.36554 609.03418 523.323181 595.847168 581.385681 597.427979 L 581.385681 693.9375 L 158.623291 693.9375 L 158.623291 208.341797 L 1025.941406 208.341797 L 1025.941406 609.521729 C 1025.941406 615.539795 1030.820313 620.418457 1036.838257 620.418457 C 1042.856201 620.418457 1047.734863 615.539795 1047.734863 609.521729 L 1047.734863 197.445068 C 1047.734863 191.427246 1042.856201 186.54834 1036.838257 186.54834 L 147.726624 186.54834 C 141.708679 186.54834 136.829895 191.427246 136.829895 197.445068 L 136.829895 704.834473 C 136.829895 710.510742 141.186279 715.119385 146.729309 715.630615 L 146.729309 715.731201 L 872.996338 715.731201 C 1035.392212 715.731201 1110.307495 645.416504 1148.578369 588.94043 C 1138.932007 635.952393 1117.008179 701.461182 1067.288452 746.541748 C 1000.519653 807.079834 900.635132 820.692139 811.739258 826.025391 C 736.88916 830.512939 660.474121 829.778564 586.594299 829.074463 C 559.085999 828.811768 530.637939 828.539551 502.646362 828.539551 C 468.479492 828.539551 149.970398 827.749268 146.756226 827.73999 L 135.832642 827.712891 L 135.832642 1097.451416 L 1047.721924 1097.445068 L 1047.721924 811.596436 C 1040.613037 815.681152 1033.346924 819.490723 1025.923706 822.986328 L 1025.923706 1075.647217 L 157.626038 1075.658203 L 157.626038 849.560059 C 214.219116 849.700195 472.073364 850.332764 502.646362 850.332764 C 530.534363 850.332764 558.928711 850.603516 586.383362 850.866211 C 660.646606 851.581543 737.441528 852.310059 813.043335 847.776367 C 905.724854 842.218994 1010.150635 827.760986 1081.924805 762.685547 C 1165.278198 687.110596 1176.312988 560.473145 1177.678345 535.854736 L 1180.516724 484.731201 L 1155.992432 532.450684 Z M 571.73938 575.470215 C 517.815796 575.470215 470.205505 587.513672 441.074707 608.645264 C 478.889099 473.706055 446.348572 380.11377 428.989014 343.616699 L 739.267212 343.616699 C 750.060181 368.160156 787.379883 470.843018 736.95813 623.753418 C 706.523315 597.601074 655.645142 580.205078 596.294373 576.287109 C 587.994263 575.740479 579.797791 575.470215 571.73938 575.470215 Z"/>
        </g>
    </g>
</svg>
