<?xml version="1.0" encoding="UTF-8"?>
<svg id="Layer_2" data-name="Layer 2" xmlns="http://www.w3.org/2000/svg" viewBox="0 0 1189.39 1037.14">
  <defs>
    <style>
      .cls-1 {
        fill: #ecf0f1;
        stroke: #ecf0f1;
        stroke-miterlimit: 10;
        stroke-width: 4px;
      }
    </style>
  </defs>
  <g id="Layer_1-2" data-name="Layer 1">
    <path class="cls-1" d="M1159.06,394.32c-30.51,59.45-93.99,183.16-320.97,183.16h-306.02v-107.99c66.22,5.99,122.15,28.23,147.34,59.03,2.37,2.9,5.89,4.54,9.57,4.54.69,0,1.38-.06,2.08-.18,4.38-.75,8.03-3.79,9.54-7.97,80.2-221,7.59-357.37,4.46-363.07-2.17-3.95-6.33-6.41-10.83-6.41h-162.15v-60.4h-24.72v60.4h-193.53c-4.52,0-8.68,2.49-10.85,6.46-2.17,3.97-1.97,8.82.48,12.63.84,1.3,83.25,132.69,7.31,341.96-1.95,5.37.04,11.39,4.82,14.53,4.78,3.15,11.08,2.61,15.26-1.31l23.72-22.26c28-26.26,86.93-41.22,152.79-39.43v109.46H27.85V26.72h983.7v455.01c0,6.83,5.53,12.36,12.36,12.36s12.36-5.53,12.36-12.36V14.36c0-6.83-5.53-12.36-12.36-12.36H15.49C8.66,2,3.13,7.53,3.13,14.36v575.48c0,6.44,4.94,11.67,11.23,12.24v.11h823.72c184.19,0,269.16-79.75,312.56-143.8-10.94,53.32-35.81,127.62-92.2,178.75-75.73,68.66-189.02,84.1-289.84,90.15-84.89,5.09-171.56,4.26-255.36,3.46-31.2-.3-63.47-.61-95.21-.61-38.75,0-400-.9-403.65-.91l-12.39-.03v305.93h1034.26v-324.21c-8.06,4.63-16.3,8.95-24.72,12.92v286.57H26.72s0-256.43,0-256.43c64.19.16,356.64.88,391.32.88,31.63,0,63.83.31,94.97.6,84.23.81,171.33,1.64,257.08-3.5,105.12-6.3,223.56-22.7,304.96-96.51,94.54-85.72,107.05-229.35,108.6-257.27l3.22-57.98-27.82,54.12ZM496.4,443.11c-61.16,0-115.16,13.66-148.2,37.63,42.89-153.05,5.98-259.2-13.71-300.59h351.91c12.24,27.84,54.57,144.3-2.62,317.73-34.52-29.66-92.22-49.39-159.54-53.84-9.41-.62-18.71-.93-27.85-.93Z"/>
  </g>
</svg>